<svg width="74" height="105" viewBox="0 0 74 105" fill="none" xmlns="http://www.w3.org/2000/svg">
<path d="M59.8071 66.8497C63.2274 68.0313 66.0258 69.9901 68.2023 72.7263C70.441 75.4003 71.5604 78.9139 71.5604 83.2669C71.5604 90.1696 69.5393 95.1134 65.4972 98.0984C61.5173 101.021 56.6356 102.483 50.8523 102.483H26.8794C25.6357 102.483 24.5785 102.047 23.7079 101.177C22.8373 100.306 22.402 99.2489 22.402 98.0051V41.6642C22.402 40.4205 22.8373 39.3633 23.7079 38.4927C24.5785 37.6221 25.6357 37.1868 26.8794 37.1868H50.8523C56.5112 37.1868 60.8021 38.586 63.7249 41.3844C66.7099 44.1827 68.2023 48.2249 68.2023 53.5107C68.2023 56.4957 67.4872 59.1697 66.0569 61.5328C64.6266 63.8337 62.5433 65.606 59.8071 66.8497ZM58.5945 54.9099C58.5945 51.9871 57.7861 49.7795 56.1692 48.2871C54.6145 46.7324 52.4069 45.9551 49.5464 45.9551H31.9165V64.1446H49.7329C52.2826 64.0824 54.3969 63.274 56.0759 61.7193C57.755 60.1025 58.5945 57.8327 58.5945 54.9099ZM50.759 93.9008C54.1792 93.9008 56.9155 93.0302 58.9676 91.289C61.0198 89.4856 62.0458 86.8116 62.0458 83.2669C62.0458 76.3642 58.1281 72.9129 50.2926 72.9129H31.9165V93.9008H50.759Z" fill="#E5E4CC"/>
<path d="M69.0984 58.4338L21.163 72.6849C20.947 78.9467 20.6447 94.4502 21.163 98.5959C21.6812 102.742 25.6974 103.778 27.6407 103.778H52.2562C84.645 99.8915 71.6895 66.8549 62.6206 66.8549C60.5722 66.8549 67.8028 65.5594 69.0984 58.4338Z" fill="#E88320"/>
<path d="M66.0891 98.9044L66.0913 98.9028C70.4764 95.6646 72.5604 90.3594 72.5604 83.2669C72.5604 78.7442 71.3955 74.9879 68.9771 72.094C67.1288 69.7735 64.8547 67.9839 62.1679 66.7272C64.1402 65.5125 65.7265 63.9584 66.9062 62.0607L66.9062 62.0607L66.9124 62.0506C68.4448 59.5187 69.2023 56.663 69.2023 53.5107C69.2023 48.0357 67.6513 43.6969 64.4126 40.6583C61.2405 37.6236 56.663 36.1868 50.8523 36.1868H26.8794C25.3735 36.1868 24.0611 36.7253 23.0008 37.7856L23.7079 38.4927L23.0008 37.7856C21.9405 38.8459 21.402 40.1583 21.402 41.6642V98.0051C21.402 99.511 21.9405 100.823 23.0008 101.884C24.0611 102.944 25.3735 103.483 26.8794 103.483H50.8523C56.8109 103.483 61.9095 101.974 66.0891 98.9044ZM55.4621 48.9942L55.4762 49.0083L55.4909 49.0219C56.8414 50.2685 57.5945 52.1702 57.5945 54.9099C57.5945 57.6297 56.8209 59.6096 55.3893 60.9923C53.9134 62.3556 52.0473 63.0855 49.7205 63.1446H32.9165V46.9551H49.5464C52.2249 46.9551 54.1466 47.6786 55.4621 48.9942ZM58.3139 90.5322C56.4876 92.0786 54.0041 92.9008 50.759 92.9008H32.9165V73.9129H50.2926C54.0852 73.9129 56.7428 74.7509 58.4465 76.2518C60.126 77.7313 61.0458 80.0049 61.0458 83.2669C61.0458 86.6111 60.0858 88.9715 58.3139 90.5322Z" stroke="#804001" stroke-width="2"/>
<path d="M58.65 83.3867C58.65 85.9594 57.8719 87.694 56.4935 88.8357C55.0264 90.0001 52.9939 90.65 50.2601 90.65H35.35V76.35H49.8576C53.0861 76.35 55.2564 77.0227 56.6041 78.1371C57.9026 79.2108 58.65 80.8739 58.65 83.3867Z" fill="white" stroke="white" stroke-width="2.7"/>
<path d="M7.1883 11C2.60954 1.07942 12.4212 -3.55031 17 7.03178" stroke="#804001" stroke-width="1.8"/>
<path d="M27.5521 22.1585C22.5255 30.9188 32.1831 31.706 27.5521 22.1585Z" stroke="#E88320" stroke-width="3"/>
<mask id="path-7-inside-1_955_965" fill="white">
<rect y="10.6038" width="23.3199" height="16.8422" rx="1" transform="rotate(-23.2542 0 10.6038)"/>
</mask>
<rect y="10.6038" width="23.3199" height="16.8422" rx="1" transform="rotate(-23.2542 0 10.6038)" fill="#E5E3CC" stroke="#804001" stroke-width="3" mask="url(#path-7-inside-1_955_965)"/>
</svg>
