<svg width="74" height="105" viewBox="0 0 74 105" fill="none" xmlns="http://www.w3.org/2000/svg">
<path d="M59.8073 66.8497C63.2275 68.0313 66.0259 69.9901 68.2024 72.7263C70.4411 75.4003 71.5605 78.9139 71.5605 83.2669C71.5605 90.1696 69.5395 95.1134 65.4973 98.0984C61.5174 101.021 56.6357 102.483 50.8524 102.483H26.8795C25.6358 102.483 24.5786 102.047 23.708 101.177C22.8374 100.306 22.4021 99.2489 22.4021 98.0051V41.6642C22.4021 40.4205 22.8374 39.3633 23.708 38.4927C24.5786 37.6221 25.6358 37.1868 26.8795 37.1868H50.8524C56.5114 37.1868 60.8023 38.586 63.725 41.3844C66.71 44.1827 68.2024 48.2249 68.2024 53.5107C68.2024 56.4957 67.4873 59.1697 66.057 61.5328C64.6267 63.8337 62.5435 65.606 59.8073 66.8497ZM58.5946 54.9099C58.5946 51.9871 57.7862 49.7795 56.1693 48.2871C54.6147 46.7324 52.4071 45.9551 49.5465 45.9551H31.9166V64.1446H49.733C52.2827 64.0824 54.397 63.274 56.0761 61.7193C57.7551 60.1025 58.5946 57.8327 58.5946 54.9099ZM50.7591 93.9008C54.1794 93.9008 56.9156 93.0302 58.9678 91.289C61.0199 89.4856 62.046 86.8116 62.046 83.2669C62.046 76.3642 58.1282 72.9129 50.2927 72.9129H31.9166V93.9008H50.7591Z" fill="#E5E4CC"/>
<path d="M69.0985 58.4338L21.1631 72.6849C20.9472 78.9467 20.6449 94.4502 21.1631 98.5959C21.6813 102.742 25.6975 103.778 27.6408 103.778H52.2563C84.6451 99.8915 71.6896 66.8549 62.6207 66.8549C60.5723 66.8549 67.8029 65.5594 69.0985 58.4338Z" fill="#E88320"/>
<path d="M66.0893 98.9044L66.0914 98.9028C70.4765 95.6646 72.5605 90.3594 72.5605 83.2669C72.5605 78.7442 71.3956 74.9879 68.9772 72.094C67.129 69.7735 64.8548 67.9839 62.1681 66.7272C64.1403 65.5125 65.7266 63.9584 66.9063 62.0607L66.9064 62.0607L66.9125 62.0506C68.4449 59.5187 69.2024 56.663 69.2024 53.5107C69.2024 48.0357 67.6515 43.6969 64.4127 40.6583C61.2406 37.6236 56.6631 36.1868 50.8524 36.1868H26.8795C25.3736 36.1868 24.0612 36.7253 23.0009 37.7856L23.708 38.4927L23.0009 37.7856C21.9406 38.8459 21.4021 40.1583 21.4021 41.6642V98.0051C21.4021 99.511 21.9406 100.823 23.0009 101.884C24.0612 102.944 25.3736 103.483 26.8795 103.483H50.8524C56.811 103.483 61.9096 101.974 66.0893 98.9044ZM55.4622 48.9942L55.4764 49.0083L55.4911 49.0219C56.8416 50.2685 57.5946 52.1702 57.5946 54.9099C57.5946 57.6297 56.8211 59.6096 55.3894 60.9923C53.9135 62.3556 52.0474 63.0855 49.7206 63.1446H32.9166V46.9551H49.5465C52.2251 46.9551 54.1467 47.6786 55.4622 48.9942ZM58.314 90.5322C56.4877 92.0786 54.0042 92.9008 50.7591 92.9008H32.9166V73.9129H50.2927C54.0853 73.9129 56.7429 74.7509 58.4466 76.2518C60.1261 77.7313 61.046 80.0049 61.046 83.2669C61.046 86.6111 60.0859 88.9715 58.314 90.5322Z" stroke="#804001" stroke-width="2"/>
<path d="M58.65 83.3867C58.65 85.9594 57.8719 87.694 56.4935 88.8357C55.0264 90.0001 52.9939 90.65 50.2601 90.65H35.35V76.35H49.8576C53.0861 76.35 55.2564 77.0227 56.6041 78.1371C57.9026 79.2108 58.65 80.8739 58.65 83.3867Z" fill="white" stroke="white" stroke-width="2.7"/>
<path d="M7.1883 11C2.60954 1.07942 12.4212 -3.55031 17 7.03178" stroke="#804001" stroke-width="1.8"/>
<path d="M27.5523 22.1583C22.5257 30.9187 32.1832 31.7059 27.5523 22.1583Z" stroke="#E88320" stroke-width="3"/>
<mask id="path-7-inside-1_1222_1080" fill="white">
<rect y="10.6038" width="23.3199" height="16.8422" rx="1" transform="rotate(-23.2542 0 10.6038)"/>
</mask>
<rect y="10.6038" width="23.3199" height="16.8422" rx="1" transform="rotate(-23.2542 0 10.6038)" fill="#E5E3CC" stroke="#804001" stroke-width="3" mask="url(#path-7-inside-1_1222_1080)"/>
</svg>
