<svg width="182" height="153" viewBox="0 0 182 153" fill="none" xmlns="http://www.w3.org/2000/svg">
<path d="M1 125L29.5 93H153L125 125H1Z" fill="#D9D8C1" stroke="#804001" stroke-width="2" stroke-linecap="round" stroke-linejoin="round"/>
<path d="M18 120L36.5 99H137L118 120H18Z" fill="#BFBEAA" stroke="#804001" stroke-width="2" stroke-linecap="round" stroke-linejoin="round"/>
<rect x="27" y="1" width="126" height="93" rx="2" fill="#E5E4CC" stroke="#804001" stroke-width="2"/>
<rect x="91.5" y="68.5" width="19" height="9" stroke="#626262" stroke-dasharray="2 2"/>
<path d="M88 48H94" stroke="#626262" stroke-linecap="round"/>
<path d="M89 50H93" stroke="#626262" stroke-linecap="round"/>
<path d="M90 52H92" stroke="#626262" stroke-linecap="round"/>
<mask id="path-8-inside-1_955_979" fill="white">
<path fill-rule="evenodd" clip-rule="evenodd" d="M95 42.9297C97.3912 41.5465 99 38.9611 99 36C99 31.5817 95.4183 28 91 28C86.5817 28 83 31.5817 83 36C83 38.9611 84.6088 41.5465 87 42.9297V46C87 46.5523 87.4477 47 88 47H94C94.5523 47 95 46.5523 95 46V42.9297Z"/>
</mask>
<path d="M95 42.9297L94.4993 42.0641L94 42.353V42.9297H95ZM87 42.9297H88V42.353L87.5007 42.0641L87 42.9297ZM98 36C98 38.5897 96.5942 40.8523 94.4993 42.0641L95.5007 43.7953C98.1882 42.2407 100 39.3325 100 36H98ZM91 29C94.866 29 98 32.134 98 36H100C100 31.0294 95.9706 27 91 27V29ZM84 36C84 32.134 87.134 29 91 29V27C86.0294 27 82 31.0294 82 36H84ZM87.5007 42.0641C85.4058 40.8523 84 38.5897 84 36H82C82 39.3325 83.8118 42.2407 86.4993 43.7953L87.5007 42.0641ZM88 46V42.9297H86V46H88ZM88 46H86C86 47.1046 86.8954 48 88 48V46ZM94 46H88V48H94V46ZM94 46V48C95.1046 48 96 47.1046 96 46H94ZM94 42.9297V46H96V42.9297H94Z" fill="#626262" mask="url(#path-8-inside-1_955_979)"/>
<path d="M27 3C27 1.89543 27.8954 1 29 1H91V94H29C27.8954 94 27 93.1046 27 92V3Z" fill="#F7F6DC" stroke="#804001" stroke-width="2"/>
<circle cx="39" cy="12" r="5" fill="#E8D709"/>
<circle cx="41" cy="10" r="5" fill="#E88320"/>
<path d="M68.5 70C68.5 69.1716 69.1716 68.5 70 68.5H90.5V77.5H70C69.1716 77.5 68.5 76.8284 68.5 76V70Z" fill="#E88320" stroke="#804001"/>
<mask id="mask0_955_979" style="mask-type:alpha" maskUnits="userSpaceOnUse" x="83" y="28" width="16" height="25">
<path d="M94 48H88" stroke="#804001" stroke-linecap="round"/>
<path d="M93 50H89" stroke="#804001" stroke-linecap="round"/>
<path d="M92 52H90" stroke="#804001" stroke-linecap="round"/>
<rect width="8" height="5" rx="1" transform="matrix(-1 0 0 1 95 42)" fill="#E88320"/>
<circle r="8" transform="matrix(-1 0 0 1 91 36)" fill="#E88320"/>
</mask>
<g mask="url(#mask0_955_979)">
<rect width="12" height="25" transform="matrix(-1 0 0 1 90 28)" fill="#E88320"/>
</g>
<path d="M88 32C87.1667 32.1667 85.6 33 86 35" stroke="white" stroke-linecap="round"/>
<path d="M145.54 9.50005C145.454 9.35036 145.33 9.22561 145.181 9.13799C145.032 9.05036 144.863 9.00283 144.69 9.00005H138.29L138 7.87005C137.971 7.76097 137.905 7.66502 137.815 7.59784C137.724 7.53065 137.613 7.49618 137.5 7.50005H136.5C136.367 7.50005 136.24 7.55273 136.146 7.6465C136.053 7.74026 136 7.86744 136 8.00005C136 8.13266 136.053 8.25983 136.146 8.3536C136.24 8.44737 136.367 8.50005 136.5 8.50005H137.12L138.5 13.63C138.529 13.7391 138.595 13.8351 138.685 13.9023C138.776 13.9694 138.887 14.0039 139 14H143.5C143.592 13.9998 143.683 13.9739 143.761 13.9254C143.84 13.8768 143.903 13.8075 143.945 13.725L145.585 10.445C145.656 10.2961 145.689 10.1318 145.681 9.96689C145.673 9.802 145.625 9.64161 145.54 9.50005ZM143.19 13H139.38L138.565 10H144.69L143.19 13Z" fill="#626262"/>
<path d="M138.75 16.5C139.164 16.5 139.5 16.1642 139.5 15.75C139.5 15.3358 139.164 15 138.75 15C138.336 15 138 15.3358 138 15.75C138 16.1642 138.336 16.5 138.75 16.5Z" fill="#626262"/>
<path d="M143.75 16.5C144.164 16.5 144.5 16.1642 144.5 15.75C144.5 15.3358 144.164 15 143.75 15C143.336 15 143 15.3358 143 15.75C143 16.1642 143.336 16.5 143.75 16.5Z" fill="#626262"/>
<path d="M77.384 71.196C77.4293 71.196 77.468 71.2107 77.5 71.24C77.532 71.2667 77.548 71.3027 77.548 71.348C77.548 71.3693 77.5427 71.3933 77.532 71.42L76.488 73.896C76.472 73.9307 76.4493 73.9573 76.42 73.976C76.3933 73.992 76.364 74 76.332 74C76.3027 73.9973 76.2747 73.988 76.248 73.972C76.2213 73.9533 76.2013 73.928 76.188 73.896L75.148 71.424C75.1427 71.4133 75.1387 71.4027 75.136 71.392C75.1333 71.3787 75.132 71.3653 75.132 71.352C75.132 71.3013 75.1493 71.2627 75.184 71.236C75.2213 71.2067 75.2573 71.192 75.292 71.192C75.364 71.192 75.416 71.2293 75.448 71.304L76.404 73.584H76.312L77.236 71.296C77.268 71.2293 77.3173 71.196 77.384 71.196ZM78.1878 71.2H79.6118C79.6571 71.2 79.6958 71.2147 79.7278 71.244C79.7598 71.2733 79.7758 71.3107 79.7758 71.356C79.7758 71.4013 79.7598 71.4387 79.7278 71.468C79.6958 71.4947 79.6571 71.508 79.6118 71.508H78.3238L78.3598 71.44V72.452L78.3198 72.408H79.4318C79.4771 72.408 79.5158 72.4227 79.5478 72.452C79.5798 72.4813 79.5958 72.5187 79.5958 72.564C79.5958 72.6093 79.5798 72.6467 79.5478 72.676C79.5158 72.7027 79.4771 72.716 79.4318 72.716H78.3318L78.3598 72.68V73.716L78.3358 73.688H79.6118C79.6571 73.688 79.6958 73.704 79.7278 73.736C79.7598 73.768 79.7758 73.804 79.7758 73.844C79.7758 73.8893 79.7598 73.9267 79.7278 73.956C79.6958 73.9853 79.6571 74 79.6118 74H78.1878C78.1424 74 78.1038 73.984 78.0718 73.952C78.0424 73.92 78.0278 73.8813 78.0278 73.836V71.36C78.0278 71.3147 78.0424 71.2773 78.0718 71.248C78.1038 71.216 78.1424 71.2 78.1878 71.2ZM80.493 74C80.4424 74 80.3984 73.984 80.361 73.952C80.3264 73.92 80.309 73.8813 80.309 73.836V71.36C80.309 71.3147 80.3237 71.2773 80.353 71.248C80.385 71.216 80.4237 71.2 80.469 71.2H81.573C81.7224 71.2 81.857 71.2347 81.977 71.304C82.097 71.3707 82.1917 71.464 82.261 71.584C82.333 71.7013 82.369 71.8373 82.369 71.992C82.369 72.104 82.3477 72.2093 82.305 72.308C82.2624 72.404 82.2037 72.488 82.129 72.56C82.0544 72.6293 81.969 72.6827 81.873 72.72L81.785 72.656C81.8757 72.6773 81.957 72.716 82.029 72.772C82.101 72.8253 82.1597 72.8947 82.205 72.98C82.2504 73.0627 82.2744 73.16 82.277 73.272C82.2824 73.3707 82.289 73.4493 82.297 73.508C82.305 73.5667 82.317 73.6133 82.333 73.648C82.349 73.68 82.3717 73.7053 82.401 73.724C82.4384 73.748 82.4624 73.78 82.473 73.82C82.4864 73.86 82.4797 73.8987 82.453 73.936C82.437 73.96 82.4144 73.9773 82.385 73.988C82.3557 73.996 82.3264 73.9987 82.297 73.996C82.2677 73.9933 82.2424 73.9853 82.221 73.972C82.1784 73.948 82.137 73.9133 82.097 73.868C82.057 73.82 82.0237 73.752 81.997 73.664C81.9704 73.576 81.957 73.456 81.957 73.304C81.957 73.2187 81.9437 73.148 81.917 73.092C81.8904 73.036 81.8544 72.9907 81.809 72.956C81.7637 72.9213 81.713 72.8973 81.657 72.884C81.601 72.8707 81.5437 72.864 81.485 72.864H80.593L80.641 72.792V73.836C80.641 73.8813 80.6277 73.92 80.601 73.952C80.5744 73.984 80.5384 74 80.493 74ZM80.593 72.576H81.573C81.6504 72.5707 81.7224 72.544 81.789 72.496C81.8584 72.448 81.9144 72.3813 81.957 72.296C82.0024 72.208 82.025 72.1093 82.025 72C82.025 71.8587 81.9797 71.7413 81.889 71.648C81.801 71.5547 81.689 71.508 81.553 71.508H80.609L80.641 71.432V72.648L80.593 72.576ZM84.2777 71.196C84.3017 71.196 84.3271 71.2027 84.3537 71.216C84.3831 71.2293 84.4057 71.2467 84.4217 71.268L85.4817 72.872L85.3417 72.868L86.4137 71.268C86.4484 71.2173 86.4937 71.1933 86.5497 71.196C86.5924 71.1987 86.6297 71.2147 86.6617 71.244C86.6937 71.2733 86.7097 71.312 86.7097 71.36V73.836C86.7097 73.8813 86.6937 73.92 86.6617 73.952C86.6297 73.984 86.5897 74 86.5417 74C86.4937 74 86.4537 73.984 86.4217 73.952C86.3897 73.92 86.3737 73.8813 86.3737 73.836V71.664L86.4737 71.684L85.5297 73.12C85.5137 73.1387 85.4937 73.1547 85.4697 73.168C85.4484 73.1813 85.4257 73.188 85.4017 73.188C85.3777 73.188 85.3537 73.1813 85.3297 73.168C85.3057 73.1547 85.2857 73.1387 85.2697 73.12L84.3377 71.684L84.4217 71.58V73.836C84.4217 73.8813 84.4071 73.92 84.3777 73.952C84.3484 73.984 84.3111 74 84.2657 74C84.2204 74 84.1831 73.984 84.1537 73.952C84.1271 73.92 84.1137 73.8813 84.1137 73.836V71.36C84.1137 71.3173 84.1284 71.28 84.1577 71.248C84.1897 71.2133 84.2297 71.196 84.2777 71.196ZM88.3786 71.616L87.4386 73.904C87.4279 73.936 87.4093 73.9613 87.3826 73.98C87.3559 73.9987 87.3279 74.008 87.2986 74.008C87.2479 74.008 87.2106 73.9947 87.1866 73.968C87.1626 73.9413 87.1506 73.9093 87.1506 73.872C87.1479 73.8533 87.1506 73.8333 87.1586 73.812L88.1946 71.292C88.2079 71.2547 88.2279 71.228 88.2546 71.212C88.2839 71.1933 88.3159 71.1853 88.3506 71.188C88.3853 71.188 88.4159 71.1973 88.4426 71.216C88.4719 71.2347 88.4919 71.26 88.5026 71.292L89.5346 73.788C89.5426 73.8093 89.5466 73.8307 89.5466 73.852C89.5466 73.9 89.5306 73.9387 89.4986 73.968C89.4666 73.9947 89.4306 74.008 89.3906 74.008C89.3586 74.008 89.3293 73.9987 89.3026 73.98C89.2759 73.9613 89.2559 73.9347 89.2426 73.9L88.2906 71.612L88.3786 71.616ZM87.6386 73.252L87.7746 72.94H88.9626L89.0226 73.252H87.6386ZM88.3666 71.028C88.3319 71.028 88.3053 71.0187 88.2866 71C88.2679 70.9813 88.2586 70.9587 88.2586 70.932C88.2586 70.916 88.2626 70.9013 88.2706 70.888C88.2786 70.8747 88.2893 70.8613 88.3026 70.848L88.6546 70.56C88.6759 70.544 88.6986 70.5307 88.7226 70.52C88.7466 70.5067 88.7719 70.5 88.7986 70.5C88.8359 70.5 88.8706 70.5147 88.9026 70.544C88.9346 70.5707 88.9506 70.6053 88.9506 70.648C88.9506 70.68 88.9413 70.7093 88.9226 70.736C88.9066 70.7627 88.8813 70.784 88.8466 70.8L88.4546 71C88.4413 71.008 88.4266 71.0147 88.4106 71.02C88.3946 71.0253 88.3799 71.028 88.3666 71.028Z" fill="white"/>
<path d="M81.2051 39.8823L73 40.7042" stroke="#E88320" stroke-width="1.5" stroke-linecap="round"/>
<path d="M80.9455 31.0594L73 26.802" stroke="#E88320" stroke-width="1.5" stroke-linecap="round"/>
<path d="M87.4901 25.2866L87 17" stroke="#E88320" stroke-width="1.5" stroke-linecap="round"/>
<rect x="127" y="59" width="54" height="93" rx="2" fill="#F7F6DC" stroke="#804001" stroke-width="2"/>
<circle cx="153" cy="71" r="5" fill="#E8D709"/>
<circle cx="155" cy="69" r="5" fill="#E88320"/>
<path d="M177.54 67.5C177.454 67.3504 177.33 67.2256 177.181 67.138C177.032 67.0504 176.863 67.0028 176.69 67H170.29L170 65.87C169.971 65.761 169.905 65.665 169.815 65.5978C169.724 65.5306 169.613 65.4962 169.5 65.5H168.5C168.367 65.5 168.24 65.5527 168.146 65.6465C168.053 65.7403 168 65.8674 168 66C168 66.1327 168.053 66.2598 168.146 66.3536C168.24 66.4474 168.367 66.5 168.5 66.5H169.12L170.5 71.63C170.529 71.7391 170.595 71.8351 170.685 71.9023C170.776 71.9694 170.887 72.0039 171 72H175.5C175.592 71.9998 175.683 71.9739 175.761 71.9254C175.84 71.8768 175.903 71.8075 175.945 71.725L177.585 68.445C177.656 68.2961 177.689 68.1318 177.681 67.9669C177.673 67.802 177.625 67.6416 177.54 67.5ZM175.19 71H171.38L170.565 68H176.69L175.19 71Z" fill="#626262"/>
<path d="M170.75 74.5C171.164 74.5 171.5 74.1642 171.5 73.75C171.5 73.3358 171.164 73 170.75 73C170.336 73 170 73.3358 170 73.75C170 74.1642 170.336 74.5 170.75 74.5Z" fill="#626262"/>
<path d="M175.75 74.5C176.164 74.5 176.5 74.1642 176.5 73.75C176.5 73.3358 176.164 73 175.75 73C175.336 73 175 73.3358 175 73.75C175 74.1642 175.336 74.5 175.75 74.5Z" fill="#626262"/>
<path d="M152.204 107.556H155.87" stroke="#E88320" stroke-linecap="round"/>
<path d="M152.815 108.778H155.259" stroke="#E88320" stroke-linecap="round"/>
<path d="M153.426 110H154.648" stroke="#E88320" stroke-linecap="round"/>
<mask id="path-37-inside-2_955_979" fill="white">
<path fill-rule="evenodd" clip-rule="evenodd" d="M156.475 103.886C157.939 103.039 158.925 101.455 158.925 99.6416C158.925 96.9354 156.731 94.7416 154.025 94.7416C151.319 94.7416 149.125 96.9354 149.125 99.6416C149.125 101.455 150.11 103.039 151.575 103.886V105.379C151.575 105.931 152.022 106.379 152.575 106.379H155.475C156.027 106.379 156.475 105.931 156.475 105.379V103.886Z"/>
</mask>
<path fill-rule="evenodd" clip-rule="evenodd" d="M156.475 103.886C157.939 103.039 158.925 101.455 158.925 99.6416C158.925 96.9354 156.731 94.7416 154.025 94.7416C151.319 94.7416 149.125 96.9354 149.125 99.6416C149.125 101.455 150.11 103.039 151.575 103.886V105.379C151.575 105.931 152.022 106.379 152.575 106.379H155.475C156.027 106.379 156.475 105.931 156.475 105.379V103.886Z" fill="#E88320"/>
<path d="M156.475 103.886L155.974 103.021L155.475 103.309V103.886H156.475ZM151.575 103.886H152.575V103.309L152.076 103.02L151.575 103.886ZM157.925 99.6416C157.925 101.084 157.142 102.345 155.974 103.021L156.975 104.752C158.736 103.733 159.925 101.827 159.925 99.6416H157.925ZM154.025 95.7416C156.179 95.7416 157.925 97.4877 157.925 99.6416H159.925C159.925 96.3831 157.283 93.7416 154.025 93.7416V95.7416ZM150.125 99.6416C150.125 97.4877 151.871 95.7416 154.025 95.7416V93.7416C150.767 93.7416 148.125 96.3831 148.125 99.6416H150.125ZM152.076 103.02C150.907 102.344 150.125 101.084 150.125 99.6416H148.125C148.125 101.827 149.313 103.733 151.074 104.751L152.076 103.02ZM152.575 105.379V103.886H150.575V105.379H152.575ZM152.575 105.379H152.575H150.575C150.575 106.484 151.47 107.379 152.575 107.379V105.379ZM155.475 105.379H152.575V107.379H155.475V105.379ZM155.475 105.379H155.475V107.379C156.579 107.379 157.475 106.484 157.475 105.379H155.475ZM155.475 103.886V105.379H157.475V103.886H155.475Z" fill="#E88320" mask="url(#path-37-inside-2_955_979)"/>
<path d="M152.204 97.78C151.711 97.8819 150.783 98.391 151.02 99.613" stroke="white" stroke-width="0.7" stroke-linecap="round"/>
<path d="M148.026 102.02L143 102.523" stroke="#E88320" stroke-linecap="round"/>
<path d="M165.125 102.661L160.108 102.078" stroke="#E88320" stroke-linecap="round"/>
<path d="M148.477 95.3799L143.611 92.7722" stroke="#E88320" stroke-linecap="round"/>
<path d="M159.612 95.5748L164.249 92.5771" stroke="#E88320" stroke-linecap="round"/>
<path d="M154.001 93.0838L153.922 88" stroke="#E88320" stroke-linecap="round"/>
<rect x="141.5" y="130.5" width="25" height="9" rx="1.5" fill="#E88320" stroke="#804001"/>
<path d="M147.384 133.196C147.429 133.196 147.468 133.211 147.5 133.24C147.532 133.267 147.548 133.303 147.548 133.348C147.548 133.369 147.543 133.393 147.532 133.42L146.488 135.896C146.472 135.931 146.449 135.957 146.42 135.976C146.393 135.992 146.364 136 146.332 136C146.303 135.997 146.275 135.988 146.248 135.972C146.221 135.953 146.201 135.928 146.188 135.896L145.148 133.424C145.143 133.413 145.139 133.403 145.136 133.392C145.133 133.379 145.132 133.365 145.132 133.352C145.132 133.301 145.149 133.263 145.184 133.236C145.221 133.207 145.257 133.192 145.292 133.192C145.364 133.192 145.416 133.229 145.448 133.304L146.404 135.584H146.312L147.236 133.296C147.268 133.229 147.317 133.196 147.384 133.196ZM148.188 133.2H149.612C149.657 133.2 149.696 133.215 149.728 133.244C149.76 133.273 149.776 133.311 149.776 133.356C149.776 133.401 149.76 133.439 149.728 133.468C149.696 133.495 149.657 133.508 149.612 133.508H148.324L148.36 133.44V134.452L148.32 134.408H149.432C149.477 134.408 149.516 134.423 149.548 134.452C149.58 134.481 149.596 134.519 149.596 134.564C149.596 134.609 149.58 134.647 149.548 134.676C149.516 134.703 149.477 134.716 149.432 134.716H148.332L148.36 134.68V135.716L148.336 135.688H149.612C149.657 135.688 149.696 135.704 149.728 135.736C149.76 135.768 149.776 135.804 149.776 135.844C149.776 135.889 149.76 135.927 149.728 135.956C149.696 135.985 149.657 136 149.612 136H148.188C148.142 136 148.104 135.984 148.072 135.952C148.042 135.92 148.028 135.881 148.028 135.836V133.36C148.028 133.315 148.042 133.277 148.072 133.248C148.104 133.216 148.142 133.2 148.188 133.2ZM150.493 136C150.442 136 150.398 135.984 150.361 135.952C150.326 135.92 150.309 135.881 150.309 135.836V133.36C150.309 133.315 150.324 133.277 150.353 133.248C150.385 133.216 150.424 133.2 150.469 133.2H151.573C151.722 133.2 151.857 133.235 151.977 133.304C152.097 133.371 152.192 133.464 152.261 133.584C152.333 133.701 152.369 133.837 152.369 133.992C152.369 134.104 152.348 134.209 152.305 134.308C152.262 134.404 152.204 134.488 152.129 134.56C152.054 134.629 151.969 134.683 151.873 134.72L151.785 134.656C151.876 134.677 151.957 134.716 152.029 134.772C152.101 134.825 152.16 134.895 152.205 134.98C152.25 135.063 152.274 135.16 152.277 135.272C152.282 135.371 152.289 135.449 152.297 135.508C152.305 135.567 152.317 135.613 152.333 135.648C152.349 135.68 152.372 135.705 152.401 135.724C152.438 135.748 152.462 135.78 152.473 135.82C152.486 135.86 152.48 135.899 152.453 135.936C152.437 135.96 152.414 135.977 152.385 135.988C152.356 135.996 152.326 135.999 152.297 135.996C152.268 135.993 152.242 135.985 152.221 135.972C152.178 135.948 152.137 135.913 152.097 135.868C152.057 135.82 152.024 135.752 151.997 135.664C151.97 135.576 151.957 135.456 151.957 135.304C151.957 135.219 151.944 135.148 151.917 135.092C151.89 135.036 151.854 134.991 151.809 134.956C151.764 134.921 151.713 134.897 151.657 134.884C151.601 134.871 151.544 134.864 151.485 134.864H150.593L150.641 134.792V135.836C150.641 135.881 150.628 135.92 150.601 135.952C150.574 135.984 150.538 136 150.493 136ZM150.593 134.576H151.573C151.65 134.571 151.722 134.544 151.789 134.496C151.858 134.448 151.914 134.381 151.957 134.296C152.002 134.208 152.025 134.109 152.025 134C152.025 133.859 151.98 133.741 151.889 133.648C151.801 133.555 151.689 133.508 151.553 133.508H150.609L150.641 133.432V134.648L150.593 134.576ZM154.278 133.196C154.302 133.196 154.327 133.203 154.354 133.216C154.383 133.229 154.406 133.247 154.422 133.268L155.482 134.872L155.342 134.868L156.414 133.268C156.448 133.217 156.494 133.193 156.55 133.196C156.592 133.199 156.63 133.215 156.662 133.244C156.694 133.273 156.71 133.312 156.71 133.36V135.836C156.71 135.881 156.694 135.92 156.662 135.952C156.63 135.984 156.59 136 156.542 136C156.494 136 156.454 135.984 156.422 135.952C156.39 135.92 156.374 135.881 156.374 135.836V133.664L156.474 133.684L155.53 135.12C155.514 135.139 155.494 135.155 155.47 135.168C155.448 135.181 155.426 135.188 155.402 135.188C155.378 135.188 155.354 135.181 155.33 135.168C155.306 135.155 155.286 135.139 155.27 135.12L154.338 133.684L154.422 133.58V135.836C154.422 135.881 154.407 135.92 154.378 135.952C154.348 135.984 154.311 136 154.266 136C154.22 136 154.183 135.984 154.154 135.952C154.127 135.92 154.114 135.881 154.114 135.836V133.36C154.114 133.317 154.128 133.28 154.158 133.248C154.19 133.213 154.23 133.196 154.278 133.196ZM158.379 133.616L157.439 135.904C157.428 135.936 157.409 135.961 157.383 135.98C157.356 135.999 157.328 136.008 157.299 136.008C157.248 136.008 157.211 135.995 157.187 135.968C157.163 135.941 157.151 135.909 157.151 135.872C157.148 135.853 157.151 135.833 157.159 135.812L158.195 133.292C158.208 133.255 158.228 133.228 158.255 133.212C158.284 133.193 158.316 133.185 158.351 133.188C158.385 133.188 158.416 133.197 158.443 133.216C158.472 133.235 158.492 133.26 158.503 133.292L159.535 135.788C159.543 135.809 159.547 135.831 159.547 135.852C159.547 135.9 159.531 135.939 159.499 135.968C159.467 135.995 159.431 136.008 159.391 136.008C159.359 136.008 159.329 135.999 159.303 135.98C159.276 135.961 159.256 135.935 159.243 135.9L158.291 133.612L158.379 133.616ZM157.639 135.252L157.775 134.94H158.963L159.023 135.252H157.639ZM158.367 133.028C158.332 133.028 158.305 133.019 158.287 133C158.268 132.981 158.259 132.959 158.259 132.932C158.259 132.916 158.263 132.901 158.271 132.888C158.279 132.875 158.289 132.861 158.303 132.848L158.655 132.56C158.676 132.544 158.699 132.531 158.723 132.52C158.747 132.507 158.772 132.5 158.799 132.5C158.836 132.5 158.871 132.515 158.903 132.544C158.935 132.571 158.951 132.605 158.951 132.648C158.951 132.68 158.941 132.709 158.923 132.736C158.907 132.763 158.881 132.784 158.847 132.8L158.455 133C158.441 133.008 158.427 133.015 158.411 133.02C158.395 133.025 158.38 133.028 158.367 133.028ZM160.801 136.04C160.603 136.04 160.43 136.011 160.281 135.952C160.131 135.893 159.987 135.8 159.849 135.672C159.83 135.653 159.814 135.633 159.801 135.612C159.79 135.588 159.785 135.563 159.785 135.536C159.785 135.493 159.799 135.456 159.829 135.424C159.861 135.389 159.899 135.372 159.945 135.372C159.982 135.372 160.015 135.387 160.045 135.416C160.149 135.517 160.261 135.595 160.381 135.648C160.503 135.701 160.641 135.728 160.793 135.728C160.91 135.728 161.015 135.709 161.109 135.672C161.205 135.635 161.281 135.583 161.337 135.516C161.393 135.449 161.421 135.372 161.421 135.284C161.418 135.177 161.386 135.089 161.325 135.02C161.266 134.951 161.183 134.893 161.077 134.848C160.973 134.8 160.851 134.76 160.713 134.728C160.59 134.699 160.477 134.663 160.373 134.62C160.271 134.577 160.183 134.525 160.109 134.464C160.034 134.4 159.975 134.324 159.933 134.236C159.893 134.145 159.873 134.04 159.873 133.92C159.873 133.768 159.913 133.635 159.993 133.52C160.073 133.405 160.183 133.317 160.325 133.256C160.466 133.192 160.629 133.16 160.813 133.16C160.975 133.16 161.129 133.187 161.273 133.24C161.419 133.293 161.537 133.367 161.625 133.46C161.678 133.511 161.705 133.56 161.705 133.608C161.705 133.648 161.687 133.685 161.653 133.72C161.621 133.752 161.583 133.768 161.541 133.768C161.511 133.768 161.485 133.757 161.461 133.736C161.415 133.685 161.358 133.64 161.289 133.6C161.219 133.56 161.143 133.528 161.061 133.504C160.978 133.48 160.895 133.468 160.813 133.468C160.69 133.468 160.582 133.487 160.489 133.524C160.395 133.559 160.322 133.609 160.269 133.676C160.218 133.74 160.193 133.817 160.193 133.908C160.193 134.009 160.222 134.093 160.281 134.16C160.339 134.224 160.418 134.277 160.517 134.32C160.615 134.36 160.725 134.396 160.845 134.428C160.975 134.46 161.095 134.497 161.205 134.54C161.317 134.58 161.413 134.631 161.493 134.692C161.573 134.753 161.634 134.832 161.677 134.928C161.722 135.021 161.745 135.137 161.745 135.276C161.745 135.423 161.703 135.553 161.621 135.668C161.538 135.783 161.425 135.873 161.281 135.94C161.139 136.004 160.979 136.037 160.801 136.04Z" fill="white"/>
</svg>
