<svg width="268" height="120" viewBox="0 0 268 120" fill="none" xmlns="http://www.w3.org/2000/svg">
<path d="M69.04 73.2C71.0133 73.2 72.5067 73.6133 73.52 74.44C74.56 75.2667 75.2667 76.3733 75.64 77.76C76.04 79.12 76.24 80.64 76.24 82.32V92.56C76.24 93.2533 76.0133 93.84 75.56 94.32C75.1067 94.7733 74.5333 95 73.84 95C73.1467 95 72.5733 94.7733 72.12 94.32C71.6667 93.84 71.44 93.2533 71.44 92.56V82.32C71.44 81.44 71.32 80.6533 71.08 79.96C70.8667 79.24 70.4667 78.6667 69.88 78.24C69.2933 77.8133 68.4533 77.6 67.36 77.6C66.2933 77.6 65.3867 77.8133 64.64 78.24C63.92 78.6667 63.36 79.24 62.96 79.96C62.5867 80.6533 62.4 81.44 62.4 82.32V92.56C62.4 93.2533 62.1733 93.84 61.72 94.32C61.2667 94.7733 60.6933 95 60 95C59.3067 95 58.7333 94.7733 58.28 94.32C57.8267 93.84 57.6 93.2533 57.6 92.56V76.04C57.6 75.3467 57.8267 74.7733 58.28 74.32C58.7333 73.84 59.3067 73.6 60 73.6C60.6933 73.6 61.2667 73.84 61.72 74.32C62.1733 74.7733 62.4 75.3467 62.4 76.04V77.76L61.8 77.64C62.04 77.1867 62.3867 76.7067 62.84 76.2C63.2933 75.6667 63.8267 75.1733 64.44 74.72C65.0533 74.2667 65.7467 73.9067 66.52 73.64C67.2933 73.3467 68.1333 73.2 69.04 73.2ZM97.2681 90.32C97.9615 90.32 98.5348 90.5467 98.9881 91C99.4681 91.4267 99.7081 91.9867 99.7081 92.68C99.7081 93.3467 99.4681 93.9067 98.9881 94.36C98.5348 94.7867 97.9615 95 97.2681 95H84.2681C83.5748 95 82.9881 94.7733 82.5081 94.32C82.0548 93.84 81.8281 93.2533 81.8281 92.56V69.44C81.8281 68.7467 82.0681 68.1733 82.5481 67.72C83.0281 67.24 83.6415 67 84.3881 67C85.0281 67 85.5881 67.24 86.0681 67.72C86.5748 68.1733 86.8281 68.7467 86.8281 69.44V91L85.9481 90.32H97.2681ZM108.409 92.56C108.409 93.2533 108.182 93.84 107.729 94.32C107.276 94.7733 106.702 95 106.009 95C105.316 95 104.742 94.7733 104.289 94.32C103.836 93.84 103.609 93.2533 103.609 92.56V76.04C103.609 75.3467 103.836 74.7733 104.289 74.32C104.742 73.84 105.316 73.6 106.009 73.6C106.702 73.6 107.276 73.84 107.729 74.32C108.182 74.7733 108.409 75.3467 108.409 76.04V92.56ZM106.209 72.24C105.996 72.24 105.716 72.1333 105.369 71.92C105.049 71.68 104.902 71.3467 104.929 70.92C104.929 70.68 105.009 70.4267 105.169 70.16L107.489 66.08C107.729 65.6533 108.036 65.28 108.409 64.96C108.782 64.64 109.209 64.48 109.689 64.48C110.436 64.48 110.982 64.68 111.329 65.08C111.676 65.4533 111.836 65.92 111.809 66.48C111.782 66.7467 111.702 67.0267 111.569 67.32C111.462 67.6133 111.289 67.9067 111.049 68.2L108.009 71.56C107.742 71.8533 107.449 72.04 107.129 72.12C106.809 72.2 106.502 72.24 106.209 72.24ZM124.782 73.2C126.756 73.2 128.249 73.6133 129.262 74.44C130.302 75.2667 131.009 76.3733 131.382 77.76C131.782 79.12 131.982 80.64 131.982 82.32V92.56C131.982 93.2533 131.756 93.84 131.302 94.32C130.849 94.7733 130.276 95 129.582 95C128.889 95 128.316 94.7733 127.862 94.32C127.409 93.84 127.182 93.2533 127.182 92.56V82.32C127.182 81.44 127.062 80.6533 126.822 79.96C126.609 79.24 126.209 78.6667 125.622 78.24C125.036 77.8133 124.196 77.6 123.102 77.6C122.036 77.6 121.129 77.8133 120.382 78.24C119.662 78.6667 119.102 79.24 118.702 79.96C118.329 80.6533 118.142 81.44 118.142 82.32V92.56C118.142 93.2533 117.916 93.84 117.462 94.32C117.009 94.7733 116.436 95 115.742 95C115.049 95 114.476 94.7733 114.022 94.32C113.569 93.84 113.342 93.2533 113.342 92.56V76.04C113.342 75.3467 113.569 74.7733 114.022 74.32C114.476 73.84 115.049 73.6 115.742 73.6C116.436 73.6 117.009 73.84 117.462 74.32C117.916 74.7733 118.142 75.3467 118.142 76.04V77.76L117.542 77.64C117.782 77.1867 118.129 76.7067 118.582 76.2C119.036 75.6667 119.569 75.1733 120.182 74.72C120.796 74.2667 121.489 73.9067 122.262 73.64C123.036 73.3467 123.876 73.2 124.782 73.2ZM147.25 95.4C144.984 95.4 143.01 94.9333 141.33 94C139.677 93.04 138.397 91.7467 137.49 90.12C136.61 88.4933 136.17 86.6533 136.17 84.6C136.17 82.2 136.65 80.16 137.61 78.48C138.597 76.7733 139.877 75.4667 141.45 74.56C143.024 73.6533 144.69 73.2 146.45 73.2C147.81 73.2 149.09 73.48 150.29 74.04C151.517 74.6 152.597 75.3733 153.53 76.36C154.464 77.32 155.197 78.44 155.73 79.72C156.29 81 156.57 82.36 156.57 83.8C156.544 84.44 156.29 84.96 155.81 85.36C155.33 85.76 154.77 85.96 154.13 85.96H138.85L137.65 81.96H152.33L151.45 82.76V81.68C151.397 80.9067 151.117 80.2133 150.61 79.6C150.13 78.9867 149.517 78.5067 148.77 78.16C148.05 77.7867 147.277 77.6 146.45 77.6C145.65 77.6 144.904 77.7067 144.21 77.92C143.517 78.1333 142.917 78.4933 142.41 79C141.904 79.5067 141.504 80.1867 141.21 81.04C140.917 81.8933 140.77 82.9733 140.77 84.28C140.77 85.72 141.064 86.9467 141.65 87.96C142.264 88.9467 143.037 89.7067 143.97 90.24C144.93 90.7467 145.944 91 147.01 91C147.997 91 148.784 90.92 149.37 90.76C149.957 90.6 150.424 90.4133 150.77 90.2C151.144 89.96 151.477 89.76 151.77 89.6C152.25 89.36 152.704 89.24 153.13 89.24C153.717 89.24 154.197 89.44 154.57 89.84C154.97 90.24 155.17 90.7067 155.17 91.24C155.17 91.96 154.797 92.6133 154.05 93.2C153.357 93.7867 152.384 94.3067 151.13 94.76C149.877 95.1867 148.584 95.4 147.25 95.4ZM178.44 73.2C179.134 73.2 179.707 73.4267 180.16 73.88C180.614 74.3333 180.84 74.92 180.84 75.64V92.56C180.84 93.2533 180.614 93.84 180.16 94.32C179.707 94.7733 179.134 95 178.44 95C177.747 95 177.174 94.7733 176.72 94.32C176.267 93.84 176.04 93.2533 176.04 92.56V90.6L176.92 90.96C176.92 91.3067 176.734 91.7333 176.36 92.24C175.987 92.72 175.48 93.2 174.84 93.68C174.2 94.16 173.44 94.5733 172.56 94.92C171.707 95.24 170.774 95.4 169.76 95.4C167.92 95.4 166.254 94.9333 164.76 94C163.267 93.04 162.08 91.7333 161.2 90.08C160.347 88.4 159.92 86.48 159.92 84.32C159.92 82.1333 160.347 80.2133 161.2 78.56C162.08 76.88 163.254 75.5733 164.72 74.64C166.187 73.68 167.814 73.2 169.6 73.2C170.747 73.2 171.8 73.3733 172.76 73.72C173.72 74.0667 174.547 74.5067 175.24 75.04C175.96 75.5733 176.507 76.12 176.88 76.68C177.28 77.2133 177.48 77.6667 177.48 78.04L176.04 78.56V75.64C176.04 74.9467 176.267 74.3733 176.72 73.92C177.174 73.44 177.747 73.2 178.44 73.2ZM170.36 91C171.534 91 172.56 90.7067 173.44 90.12C174.32 89.5333 175 88.7333 175.48 87.72C175.987 86.7067 176.24 85.5733 176.24 84.32C176.24 83.04 175.987 81.8933 175.48 80.88C175 79.8667 174.32 79.0667 173.44 78.48C172.56 77.8933 171.534 77.6 170.36 77.6C169.214 77.6 168.2 77.8933 167.32 78.48C166.44 79.0667 165.747 79.8667 165.24 80.88C164.76 81.8933 164.52 83.04 164.52 84.32C164.52 85.5733 164.76 86.7067 165.24 87.72C165.747 88.7333 166.44 89.5333 167.32 90.12C168.2 90.7067 169.214 91 170.36 91Z" fill="white"/>
<path d="M188.158 94.96C187.384 94.96 186.784 94.76 186.358 94.36C185.958 93.9333 185.758 93.3333 185.758 92.56V91.88C185.758 91.1067 185.958 90.52 186.358 90.12C186.784 89.6933 187.384 89.48 188.158 89.48H188.678C189.451 89.48 190.038 89.6933 190.438 90.12C190.864 90.52 191.078 91.1067 191.078 91.88V92.56C191.078 93.3333 190.864 93.9333 190.438 94.36C190.038 94.76 189.451 94.96 188.678 94.96H188.158ZM206.678 73.28L198.038 93.6C197.852 94.1067 197.558 94.5067 197.158 94.8C196.785 95.0667 196.372 95.2 195.918 95.2C195.198 95.2 194.665 95 194.318 94.6C193.972 94.2 193.798 93.7067 193.798 93.12C193.798 92.88 193.838 92.6267 193.918 92.36L203.878 68.44C204.092 67.9067 204.412 67.4933 204.838 67.2C205.292 66.9067 205.772 66.7867 206.278 66.84C206.758 66.84 207.198 66.9867 207.598 67.28C208.025 67.5467 208.332 67.9333 208.518 68.44L218.358 91.88C218.492 92.2267 218.558 92.5467 218.558 92.84C218.558 93.56 218.318 94.1333 217.838 94.56C217.385 94.9867 216.878 95.2 216.318 95.2C215.838 95.2 215.398 95.0533 214.998 94.76C214.625 94.4667 214.332 94.0667 214.118 93.56L205.518 73.52L206.678 73.28ZM199.278 88.72L201.478 84.12H212.278L213.038 88.72H199.278ZM233.505 67C234.892 67 236.185 67.4 237.385 68.2C238.612 69 239.599 70.08 240.345 71.44C241.092 72.8 241.465 74.32 241.465 76C241.465 77.6533 241.092 79.16 240.345 80.52C239.599 81.88 238.612 82.9733 237.385 83.8C236.185 84.6 234.892 85 233.505 85H226.145L226.545 84.28V92.56C226.545 93.2533 226.332 93.84 225.905 94.32C225.479 94.7733 224.919 95 224.225 95C223.559 95 223.012 94.7733 222.585 94.32C222.159 93.84 221.945 93.2533 221.945 92.56V69.44C221.945 68.7467 222.172 68.1733 222.625 67.72C223.105 67.24 223.692 67 224.385 67H233.505ZM233.505 80.44C234.012 80.44 234.505 80.2267 234.985 79.8C235.465 79.3733 235.865 78.8267 236.185 78.16C236.505 77.4667 236.665 76.7467 236.665 76C236.665 75.2267 236.505 74.5067 236.185 73.84C235.865 73.1733 235.465 72.64 234.985 72.24C234.505 71.8133 234.012 71.6 233.505 71.6H226.065L226.545 70.88V81.08L226.105 80.44H233.505ZM257.607 67C258.994 67 260.287 67.4 261.487 68.2C262.714 69 263.7 70.08 264.447 71.44C265.194 72.8 265.567 74.32 265.567 76C265.567 77.6533 265.194 79.16 264.447 80.52C263.7 81.88 262.714 82.9733 261.487 83.8C260.287 84.6 258.994 85 257.607 85H250.247L250.647 84.28V92.56C250.647 93.2533 250.434 93.84 250.007 94.32C249.58 94.7733 249.02 95 248.327 95C247.66 95 247.114 94.7733 246.687 94.32C246.26 93.84 246.047 93.2533 246.047 92.56V69.44C246.047 68.7467 246.274 68.1733 246.727 67.72C247.207 67.24 247.794 67 248.487 67H257.607ZM257.607 80.44C258.114 80.44 258.607 80.2267 259.087 79.8C259.567 79.3733 259.967 78.8267 260.287 78.16C260.607 77.4667 260.767 76.7467 260.767 76C260.767 75.2267 260.607 74.5067 260.287 73.84C259.967 73.1733 259.567 72.64 259.087 72.24C258.607 71.8133 258.114 71.6 257.607 71.6H250.167L250.647 70.88V81.08L250.207 80.44H257.607Z" fill="#09B6E8"/>
<path d="M13.056 28.8H45.216C46.88 28.8 48.256 29.344 49.344 30.432C50.496 31.456 51.072 32.8 51.072 34.464C51.072 36.064 50.496 37.376 49.344 38.4C48.256 39.36 46.88 39.84 45.216 39.84H18.336L19.2 38.208V56.928L18.432 56.16H40.896C42.56 56.16 43.936 56.704 45.024 57.792C46.176 58.816 46.752 60.16 46.752 61.824C46.752 63.424 46.176 64.736 45.024 65.76C43.936 66.72 42.56 67.2 40.896 67.2H18.72L19.2 66.432V85.824L18.432 84.96H45.216C46.88 84.96 48.256 85.536 49.344 86.688C50.496 87.776 51.072 89.056 51.072 90.528C51.072 92.128 50.496 93.44 49.344 94.464C48.256 95.488 46.88 96 45.216 96H13.056C11.392 96 9.984 95.456 8.832 94.368C7.744 93.216 7.2 91.808 7.2 90.144V34.656C7.2 32.992 7.744 31.616 8.832 30.528C9.984 29.376 11.392 28.8 13.056 28.8Z" fill="white"/>
<path d="M69.04 37.2C71.0133 37.2 72.5067 37.6133 73.52 38.44C74.56 39.2667 75.2667 40.3733 75.64 41.76C76.04 43.12 76.24 44.64 76.24 46.32V56.56C76.24 57.2533 76.0133 57.84 75.56 58.32C75.1067 58.7733 74.5333 59 73.84 59C73.1467 59 72.5733 58.7733 72.12 58.32C71.6667 57.84 71.44 57.2533 71.44 56.56V46.32C71.44 45.44 71.32 44.6533 71.08 43.96C70.8667 43.24 70.4667 42.6667 69.88 42.24C69.2933 41.8133 68.4533 41.6 67.36 41.6C66.2933 41.6 65.3867 41.8133 64.64 42.24C63.92 42.6667 63.36 43.24 62.96 43.96C62.5867 44.6533 62.4 45.44 62.4 46.32V56.56C62.4 57.2533 62.1733 57.84 61.72 58.32C61.2667 58.7733 60.6933 59 60 59C59.3067 59 58.7333 58.7733 58.28 58.32C57.8267 57.84 57.6 57.2533 57.6 56.56V40.04C57.6 39.3467 57.8267 38.7733 58.28 38.32C58.7333 37.84 59.3067 37.6 60 37.6C60.6933 37.6 61.2667 37.84 61.72 38.32C62.1733 38.7733 62.4 39.3467 62.4 40.04V41.76L61.8 41.64C62.04 41.1867 62.3867 40.7067 62.84 40.2C63.2933 39.6667 63.8267 39.1733 64.44 38.72C65.0533 38.2667 65.7467 37.9067 66.52 37.64C67.2933 37.3467 68.1333 37.2 69.04 37.2ZM90.9481 37.2C92.4681 37.2 93.7881 37.36 94.9081 37.68C96.0548 38 96.9348 38.4533 97.5481 39.04C98.1881 39.6 98.5081 40.28 98.5081 41.08C98.5081 41.6133 98.3481 42.12 98.0281 42.6C97.7081 43.0533 97.2415 43.28 96.6281 43.28C96.2015 43.28 95.8415 43.2267 95.5481 43.12C95.2815 42.9867 95.0415 42.8267 94.8281 42.64C94.6148 42.4533 94.3615 42.28 94.0681 42.12C93.8015 41.96 93.3881 41.84 92.8281 41.76C92.2948 41.6533 91.8948 41.6 91.6281 41.6C90.2681 41.6 89.1081 41.8933 88.1481 42.48C87.2148 43.0667 86.4948 43.8667 85.9881 44.88C85.4815 45.8667 85.2281 47.0133 85.2281 48.32C85.2281 49.6 85.4815 50.7467 85.9881 51.76C86.5215 52.7467 87.2415 53.5333 88.1481 54.12C89.0815 54.7067 90.1481 55 91.3481 55C92.0148 55 92.5881 54.96 93.0681 54.88C93.5481 54.8 93.9481 54.68 94.2681 54.52C94.6415 54.3067 94.9748 54.08 95.2681 53.84C95.5615 53.6 96.0015 53.48 96.5881 53.48C97.2815 53.48 97.8148 53.7067 98.1881 54.16C98.5615 54.5867 98.7481 55.12 98.7481 55.76C98.7481 56.4267 98.3748 57.04 97.6281 57.6C96.8815 58.1333 95.8948 58.5733 94.6681 58.92C93.4681 59.24 92.1615 59.4 90.7481 59.4C88.6415 59.4 86.8148 58.92 85.2681 57.96C83.7215 56.9733 82.5215 55.64 81.6681 53.96C80.8415 52.28 80.4281 50.4 80.4281 48.32C80.4281 46.1333 80.8681 44.2133 81.7481 42.56C82.6548 40.88 83.8948 39.5733 85.4681 38.64C87.0681 37.68 88.8948 37.2 90.9481 37.2ZM118.089 37.6C118.783 37.6 119.356 37.84 119.809 38.32C120.263 38.7733 120.489 39.3467 120.489 40.04V50.2C120.489 53.0267 119.703 55.2667 118.129 56.92C116.556 58.5733 114.289 59.4 111.329 59.4C108.369 59.4 106.103 58.5733 104.529 56.92C102.983 55.2667 102.209 53.0267 102.209 50.2V40.04C102.209 39.3467 102.436 38.7733 102.889 38.32C103.343 37.84 103.916 37.6 104.609 37.6C105.303 37.6 105.876 37.84 106.329 38.32C106.783 38.7733 107.009 39.3467 107.009 40.04V50.2C107.009 51.8267 107.369 53.04 108.089 53.84C108.809 54.6133 109.889 55 111.329 55C112.796 55 113.889 54.6133 114.609 53.84C115.329 53.04 115.689 51.8267 115.689 50.2V40.04C115.689 39.3467 115.916 38.7733 116.369 38.32C116.823 37.84 117.396 37.6 118.089 37.6ZM135.766 59.4C133.499 59.4 131.526 58.9333 129.846 58C128.193 57.04 126.913 55.7467 126.006 54.12C125.126 52.4933 124.686 50.6533 124.686 48.6C124.686 46.2 125.166 44.16 126.126 42.48C127.113 40.7733 128.393 39.4667 129.966 38.56C131.539 37.6533 133.206 37.2 134.966 37.2C136.326 37.2 137.606 37.48 138.806 38.04C140.033 38.6 141.113 39.3733 142.046 40.36C142.979 41.32 143.713 42.44 144.246 43.72C144.806 45 145.086 46.36 145.086 47.8C145.059 48.44 144.806 48.96 144.326 49.36C143.846 49.76 143.286 49.96 142.646 49.96H127.366L126.166 45.96H140.846L139.966 46.76V45.68C139.913 44.9067 139.633 44.2133 139.126 43.6C138.646 42.9867 138.033 42.5067 137.286 42.16C136.566 41.7867 135.793 41.6 134.966 41.6C134.166 41.6 133.419 41.7067 132.726 41.92C132.033 42.1333 131.433 42.4933 130.926 43C130.419 43.5067 130.019 44.1867 129.726 45.04C129.433 45.8933 129.286 46.9733 129.286 48.28C129.286 49.72 129.579 50.9467 130.166 51.96C130.779 52.9467 131.553 53.7067 132.486 54.24C133.446 54.7467 134.459 55 135.526 55C136.513 55 137.299 54.92 137.886 54.76C138.473 54.6 138.939 54.4133 139.286 54.2C139.659 53.96 139.993 53.76 140.286 53.6C140.766 53.36 141.219 53.24 141.646 53.24C142.233 53.24 142.713 53.44 143.086 53.84C143.486 54.24 143.686 54.7067 143.686 55.24C143.686 55.96 143.313 56.6133 142.566 57.2C141.873 57.7867 140.899 58.3067 139.646 58.76C138.393 59.1867 137.099 59.4 135.766 59.4ZM148.04 55.68C147.773 55.3067 147.653 54.8267 147.68 54.24C147.706 53.6533 148.053 53.1467 148.72 52.72C149.146 52.4533 149.6 52.3467 150.08 52.4C150.56 52.4267 151.026 52.6667 151.48 53.12C152.253 53.8933 153.066 54.4933 153.92 54.92C154.773 55.3467 155.84 55.56 157.12 55.56C157.52 55.5333 157.96 55.48 158.44 55.4C158.92 55.2933 159.333 55.08 159.68 54.76C160.053 54.4133 160.24 53.8933 160.24 53.2C160.24 52.6133 160.04 52.1467 159.64 51.8C159.24 51.4533 158.706 51.16 158.04 50.92C157.4 50.68 156.68 50.4533 155.88 50.24C155.053 50 154.2 49.7333 153.32 49.44C152.466 49.1467 151.68 48.7733 150.96 48.32C150.24 47.84 149.653 47.2133 149.2 46.44C148.746 45.6667 148.52 44.6933 148.52 43.52C148.52 42.1867 148.893 41.0533 149.64 40.12C150.386 39.1867 151.346 38.4667 152.52 37.96C153.72 37.4533 154.973 37.2 156.28 37.2C157.106 37.2 157.973 37.3067 158.88 37.52C159.786 37.7067 160.653 38.0267 161.48 38.48C162.306 38.9067 163 39.48 163.56 40.2C163.853 40.6 164.026 41.08 164.08 41.64C164.133 42.2 163.88 42.7067 163.32 43.16C162.92 43.48 162.453 43.6267 161.92 43.6C161.386 43.5467 160.946 43.36 160.6 43.04C160.146 42.4533 159.533 41.9867 158.76 41.64C158.013 41.2933 157.146 41.12 156.16 41.12C155.76 41.12 155.32 41.1733 154.84 41.28C154.386 41.36 153.986 41.56 153.64 41.88C153.293 42.1733 153.12 42.6533 153.12 43.32C153.12 43.9333 153.32 44.4267 153.72 44.8C154.12 45.1467 154.653 45.44 155.32 45.68C156.013 45.8933 156.746 46.1067 157.52 46.32C158.32 46.5333 159.133 46.7867 159.96 47.08C160.786 47.3733 161.546 47.76 162.24 48.24C162.933 48.72 163.493 49.3467 163.92 50.12C164.346 50.8667 164.56 51.8267 164.56 53C164.56 54.36 164.16 55.52 163.36 56.48C162.56 57.44 161.56 58.1733 160.36 58.68C159.16 59.16 157.933 59.4 156.68 59.4C155.106 59.4 153.533 59.1333 151.96 58.6C150.386 58.04 149.08 57.0667 148.04 55.68ZM168.817 38H178.297C178.937 38 179.47 38.2133 179.897 38.64C180.323 39.0667 180.537 39.6 180.537 40.24C180.537 40.8533 180.323 41.3733 179.897 41.8C179.47 42.2 178.937 42.4 178.297 42.4H168.817C168.177 42.4 167.643 42.1867 167.217 41.76C166.79 41.3333 166.577 40.8 166.577 40.16C166.577 39.5467 166.79 39.04 167.217 38.64C167.643 38.2133 168.177 38 168.817 38ZM173.097 33C173.79 33 174.35 33.24 174.777 33.72C175.23 34.1733 175.457 34.7467 175.457 35.44V53.24C175.457 53.6133 175.523 53.92 175.657 54.16C175.817 54.4 176.017 54.5733 176.257 54.68C176.523 54.7867 176.803 54.84 177.097 54.84C177.417 54.84 177.71 54.7867 177.977 54.68C178.243 54.5467 178.55 54.48 178.897 54.48C179.27 54.48 179.603 54.6533 179.897 55C180.217 55.3467 180.377 55.8267 180.377 56.44C180.377 57.1867 179.963 57.8 179.137 58.28C178.337 58.76 177.47 59 176.537 59C175.977 59 175.35 58.96 174.657 58.88C173.99 58.7733 173.35 58.5467 172.737 58.2C172.15 57.8267 171.657 57.2667 171.257 56.52C170.857 55.7733 170.657 54.7467 170.657 53.44V35.44C170.657 34.7467 170.883 34.1733 171.337 33.72C171.817 33.24 172.403 33 173.097 33ZM202.464 37.2C203.157 37.2 203.73 37.4267 204.184 37.88C204.637 38.3333 204.864 38.92 204.864 39.64V56.56C204.864 57.2533 204.637 57.84 204.184 58.32C203.73 58.7733 203.157 59 202.464 59C201.77 59 201.197 58.7733 200.744 58.32C200.29 57.84 200.064 57.2533 200.064 56.56V54.6L200.944 54.96C200.944 55.3067 200.757 55.7333 200.384 56.24C200.01 56.72 199.504 57.2 198.864 57.68C198.224 58.16 197.464 58.5733 196.584 58.92C195.73 59.24 194.797 59.4 193.784 59.4C191.944 59.4 190.277 58.9333 188.784 58C187.29 57.04 186.104 55.7333 185.224 54.08C184.37 52.4 183.944 50.48 183.944 48.32C183.944 46.1333 184.37 44.2133 185.224 42.56C186.104 40.88 187.277 39.5733 188.744 38.64C190.21 37.68 191.837 37.2 193.624 37.2C194.77 37.2 195.824 37.3733 196.784 37.72C197.744 38.0667 198.57 38.5067 199.264 39.04C199.984 39.5733 200.53 40.12 200.904 40.68C201.304 41.2133 201.504 41.6667 201.504 42.04L200.064 42.56V39.64C200.064 38.9467 200.29 38.3733 200.744 37.92C201.197 37.44 201.77 37.2 202.464 37.2ZM194.384 55C195.557 55 196.584 54.7067 197.464 54.12C198.344 53.5333 199.024 52.7333 199.504 51.72C200.01 50.7067 200.264 49.5733 200.264 48.32C200.264 47.04 200.01 45.8933 199.504 44.88C199.024 43.8667 198.344 43.0667 197.464 42.48C196.584 41.8933 195.557 41.6 194.384 41.6C193.237 41.6 192.224 41.8933 191.344 42.48C190.464 43.0667 189.77 43.8667 189.264 44.88C188.784 45.8933 188.544 47.04 188.544 48.32C188.544 49.5733 188.784 50.7067 189.264 51.72C189.77 52.7333 190.464 53.5333 191.344 54.12C192.224 54.7067 193.237 55 194.384 55ZM208.821 55.68C208.554 55.3067 208.434 54.8267 208.461 54.24C208.488 53.6533 208.834 53.1467 209.501 52.72C209.928 52.4533 210.381 52.3467 210.861 52.4C211.341 52.4267 211.808 52.6667 212.261 53.12C213.034 53.8933 213.848 54.4933 214.701 54.92C215.554 55.3467 216.621 55.56 217.901 55.56C218.301 55.5333 218.741 55.48 219.221 55.4C219.701 55.2933 220.114 55.08 220.461 54.76C220.834 54.4133 221.021 53.8933 221.021 53.2C221.021 52.6133 220.821 52.1467 220.421 51.8C220.021 51.4533 219.488 51.16 218.821 50.92C218.181 50.68 217.461 50.4533 216.661 50.24C215.834 50 214.981 49.7333 214.101 49.44C213.248 49.1467 212.461 48.7733 211.741 48.32C211.021 47.84 210.434 47.2133 209.981 46.44C209.528 45.6667 209.301 44.6933 209.301 43.52C209.301 42.1867 209.674 41.0533 210.421 40.12C211.168 39.1867 212.128 38.4667 213.301 37.96C214.501 37.4533 215.754 37.2 217.061 37.2C217.888 37.2 218.754 37.3067 219.661 37.52C220.568 37.7067 221.434 38.0267 222.261 38.48C223.088 38.9067 223.781 39.48 224.341 40.2C224.634 40.6 224.808 41.08 224.861 41.64C224.914 42.2 224.661 42.7067 224.101 43.16C223.701 43.48 223.234 43.6267 222.701 43.6C222.168 43.5467 221.728 43.36 221.381 43.04C220.928 42.4533 220.314 41.9867 219.541 41.64C218.794 41.2933 217.928 41.12 216.941 41.12C216.541 41.12 216.101 41.1733 215.621 41.28C215.168 41.36 214.768 41.56 214.421 41.88C214.074 42.1733 213.901 42.6533 213.901 43.32C213.901 43.9333 214.101 44.4267 214.501 44.8C214.901 45.1467 215.434 45.44 216.101 45.68C216.794 45.8933 217.528 46.1067 218.301 46.32C219.101 46.5333 219.914 46.7867 220.741 47.08C221.568 47.3733 222.328 47.76 223.021 48.24C223.714 48.72 224.274 49.3467 224.701 50.12C225.128 50.8667 225.341 51.8267 225.341 53C225.341 54.36 224.941 55.52 224.141 56.48C223.341 57.44 222.341 58.1733 221.141 58.68C219.941 59.16 218.714 59.4 217.461 59.4C215.888 59.4 214.314 59.1333 212.741 58.6C211.168 58.04 209.861 57.0667 208.821 55.68Z" fill="white"/>
</svg>
